<svg width="146" height="30" viewBox="0 0 146 30" fill="none" xmlns="http://www.w3.org/2000/svg">
<g clip-path="url(#clip0_1405_9140)">
<path d="M44.3526 18.5949V21.1927H42.9918C41.8372 21.1927 40.9371 20.9065 40.2913 20.3342C39.6456 19.7618 39.324 18.8134 39.3264 17.4889V13.8669H37.9941V11.3161H39.3227V8.89021H42.351V11.3161H44.3303V13.8669H42.351V17.5496C42.351 17.9388 42.4306 18.2106 42.5898 18.3648C42.749 18.519 43.0174 18.5957 43.3951 18.5949H44.3526Z" fill="#02040F"/>
<path d="M50.5406 11.7416C51.1268 11.3905 51.7981 11.2069 52.4815 11.2109V14.4507H51.6155C50.8123 14.4507 50.1896 14.6219 49.7476 14.9641C49.3056 15.3064 49.0841 15.8837 49.0833 16.696V21.1939H46.0488V11.3161H49.0796V13.1716C49.4445 12.5844 49.9457 12.0939 50.5406 11.7416Z" fill="#02040F"/>
<path d="M63.052 16.8061H56.1987C56.235 17.5483 56.4239 18.0844 56.7653 18.4142C57.1209 18.7434 57.5924 18.9183 58.0766 18.9004C58.4748 18.9154 58.8667 18.797 59.1899 18.5639C59.4772 18.35 59.6832 18.0446 59.7738 17.698H62.979C62.855 18.3815 62.5629 19.0234 62.1292 19.5659C61.6837 20.1197 61.1141 20.5609 60.4666 20.8537C59.7014 21.1859 58.8724 21.3455 58.0386 21.3211C57.2048 21.2967 56.3865 21.089 55.6421 20.7127C54.8954 20.3087 54.2827 19.6956 53.8793 18.9487C53.4537 18.1817 53.2414 17.2844 53.2422 16.2568C53.243 15.2293 53.4525 14.3287 53.8706 13.5551C54.2725 12.8102 54.8853 12.2005 55.6322 11.8022C56.435 11.402 57.3195 11.1929 58.2166 11.1914C59.1137 11.1899 59.9989 11.396 60.803 11.7936C61.5318 12.1778 62.1334 12.7653 62.5349 13.4846C62.9527 14.2528 63.1633 15.1166 63.146 15.9909C63.1417 16.265 63.1102 16.5381 63.052 16.8061ZM59.5549 14.0697C59.1875 13.7429 58.7091 13.569 58.2176 13.5836C57.711 13.5657 57.2169 13.7428 56.8371 14.0784C56.4709 14.4083 56.2647 14.892 56.2185 15.5295H60.0781C60.0897 14.8821 59.9153 14.3955 59.5549 14.0697Z" fill="#02040F"/>
<path d="M70.4183 11.7057C70.9531 12.0382 71.3731 12.5264 71.622 13.1048V11.3161H74.633V21.1976H71.622V19.4101C71.3734 19.9883 70.9532 20.4763 70.4183 20.8079C69.8316 21.1627 69.1553 21.3413 68.47 21.3226C67.6976 21.3341 66.9385 21.1218 66.2841 20.7115C65.6193 20.2802 65.0908 19.6688 64.7601 18.9487C64.3889 18.1817 64.203 17.2844 64.2022 16.2568C64.2013 15.2293 64.3873 14.3287 64.7601 13.5551C65.0927 12.8389 65.621 12.2312 66.2841 11.8022C66.9385 11.3918 67.6976 11.1796 68.47 11.1911C69.1553 11.173 69.8314 11.3516 70.4183 11.7057ZM67.8774 14.4866C67.4816 14.9105 67.2836 15.5006 67.2836 16.2568C67.2836 17.0131 67.4816 17.6036 67.8774 18.0283C68.2716 18.4522 68.7941 18.6645 69.4448 18.6654C69.7378 18.6743 70.0293 18.6203 70.2997 18.507C70.5701 18.3937 70.813 18.2237 71.0121 18.0085C71.4195 17.5722 71.6228 16.9875 71.622 16.2544C71.6212 15.5212 71.4179 14.9348 71.0121 14.4953C70.8114 14.2829 70.568 14.1155 70.2978 14.0041C70.0276 13.8928 69.7368 13.8401 69.4448 13.8495C68.7957 13.8495 68.2733 14.0619 67.8774 14.4866Z" fill="#02040F"/>
<path d="M83.3198 12.1313C84.0707 12.7604 84.5703 13.6385 84.7275 14.6054H81.8935C81.8277 14.2326 81.6296 13.8961 81.3356 13.6578C81.0236 13.4202 80.6388 13.2982 80.247 13.3127C79.9039 13.3127 79.6441 13.3865 79.4676 13.5341C79.3766 13.6127 79.3052 13.7114 79.259 13.8224C79.2128 13.9335 79.1932 14.0537 79.2017 14.1737C79.2017 14.4804 79.3637 14.7118 79.6891 14.8652C80.1823 15.0709 80.6955 15.2251 81.2205 15.3253C81.8499 15.4654 82.4697 15.6456 83.0761 15.8647C83.5646 16.0512 83.9976 16.359 84.3342 16.7591C84.688 17.1714 84.8649 17.7265 84.8649 18.4242C84.8738 18.9619 84.7127 19.4888 84.4047 19.9296C84.0672 20.39 83.6067 20.7459 83.0761 20.9564C82.4237 21.2177 81.7251 21.344 81.0226 21.3275C79.6882 21.3275 78.6198 21.0323 77.8174 20.4418C77.015 19.8513 76.528 19.0056 76.3564 17.9046H79.2784C79.2914 18.0965 79.3465 18.2831 79.4397 18.4514C79.5329 18.6196 79.662 18.7653 79.8177 18.8782C80.1765 19.1157 80.6014 19.2334 81.0312 19.2146C81.3727 19.2146 81.6337 19.1355 81.8106 18.9759C81.898 18.8969 81.967 18.7997 82.0128 18.6911C82.0585 18.5825 82.0798 18.4652 82.0753 18.3475C82.0812 18.1894 82.0375 18.0335 81.9503 17.9015C81.8631 17.7695 81.7368 17.6681 81.5892 17.6114C81.0743 17.4068 80.5418 17.2499 79.9983 17.1426C79.3848 17.0228 78.7811 16.8574 78.1922 16.6478C77.7188 16.4702 77.2985 16.1747 76.9713 15.7892C76.629 15.3934 76.4579 14.8532 76.4579 14.1687C76.4464 13.7558 76.5319 13.3459 76.7077 12.9721C76.8834 12.5982 77.1445 12.2708 77.4698 12.0162C78.1411 11.467 79.0895 11.1924 80.315 11.1924C81.5685 11.1924 82.5701 11.5053 83.3198 12.1313Z" fill="#02040F"/>
<path d="M96.3795 11.3161V21.1976H93.3339V19.4101C93.0544 19.9833 92.6143 20.4629 92.0672 20.7906C91.4761 21.1414 90.7985 21.3192 90.1114 21.304C88.9766 21.304 88.076 20.9263 87.4097 20.1709C86.7433 19.4154 86.4102 18.3767 86.4102 17.0547V11.3161H89.4199V16.6824C89.4199 17.3553 89.5943 17.8778 89.9432 18.2497C90.292 18.6217 90.7613 18.8076 91.3509 18.8076C91.9645 18.8076 92.4482 18.6126 92.802 18.2225C93.1558 17.8324 93.3331 17.2778 93.3339 16.5587V11.3161H96.3795Z" fill="#02040F"/>
<path d="M102.953 11.7416C103.539 11.3907 104.209 11.2072 104.892 11.2109V14.4508H104.026C103.222 14.4508 102.6 14.6219 102.158 14.9641C101.716 15.3064 101.494 15.8837 101.493 16.696V21.1939H98.4688V11.3161H101.497V13.1716C101.86 12.5847 102.36 12.0942 102.953 11.7416Z" fill="#02040F"/>
<path d="M115.469 16.8061H108.616C108.65 17.5483 108.839 18.0844 109.182 18.4142C109.359 18.577 109.567 18.7033 109.793 18.7859C110.018 18.8684 110.258 18.9057 110.499 18.8955C110.897 18.9106 111.289 18.7922 111.612 18.559C111.9 18.3452 112.106 18.0398 112.197 17.6931H115.402C115.278 18.3766 114.985 19.0185 114.551 19.561C114.105 20.1173 113.534 20.5602 112.884 20.8537C112.118 21.1859 111.289 21.3455 110.456 21.3211C109.622 21.2967 108.804 21.089 108.059 20.7127C107.311 20.3093 106.697 19.6962 106.293 18.9487C105.867 18.1817 105.654 17.2844 105.654 16.2568C105.654 15.2293 105.867 14.3287 106.293 13.5551C106.695 12.8104 107.308 12.2008 108.055 11.8022C108.858 11.402 109.743 11.1929 110.64 11.1914C111.537 11.1899 112.422 11.396 113.226 11.7936C113.955 12.1782 114.556 12.7655 114.958 13.4846C115.376 14.2529 115.586 15.1167 115.568 15.9909C115.562 16.2652 115.528 16.5382 115.469 16.8061ZM111.972 14.0697C111.604 13.7432 111.126 13.5693 110.635 13.5836C110.128 13.5653 109.633 13.7425 109.253 14.0784C108.887 14.4083 108.681 14.892 108.634 15.5295H112.495C112.506 14.8821 112.331 14.3955 111.972 14.0697Z" fill="#02040F"/>
<path d="M120.161 16.8061V21.1976H117.133V8.67868H122.039C123.523 8.67868 124.657 9.04732 125.438 9.7846C126.22 10.5219 126.61 11.5165 126.607 12.7684C126.62 13.4959 126.44 14.2139 126.085 14.8491C125.723 15.4707 125.183 15.9702 124.535 16.2841C123.85 16.6313 123.018 16.8053 122.039 16.8061H120.161ZM123.526 12.7684C123.526 11.6715 122.918 11.1227 121.701 11.1219H120.161V14.3802H121.701C122.918 14.3802 123.526 13.843 123.526 12.7684Z" fill="#02040F"/>
<path d="M132.584 11.7416C133.17 11.3906 133.841 11.207 134.524 11.2109V14.4508H133.658C132.855 14.4508 132.232 14.6219 131.79 14.9641C131.348 15.3064 131.127 15.8837 131.126 16.696V21.1939H128.098V11.3161H131.126V13.1716C131.49 12.5844 131.99 12.0938 132.584 11.7416Z" fill="#02040F"/>
<path d="M143.05 11.8035C143.815 12.2027 144.449 12.8144 144.875 13.565C145.318 14.3328 145.539 15.2301 145.539 16.2568C145.539 17.2836 145.318 18.1809 144.875 18.9487C144.449 19.6996 143.815 20.3117 143.05 20.7115C142.23 21.1135 141.329 21.3225 140.416 21.3225C139.503 21.3225 138.603 21.1135 137.783 20.7115C137.014 20.3139 136.377 19.7014 135.949 18.9487C135.507 18.1817 135.285 17.2844 135.285 16.2568C135.285 15.2293 135.507 14.332 135.949 13.565C136.377 12.8126 137.014 12.2006 137.783 11.8035C138.603 11.4014 139.503 11.1924 140.416 11.1924C141.329 11.1924 142.23 11.4014 143.05 11.8035ZM138.96 14.4421C138.565 14.8619 138.367 15.4668 138.367 16.2568C138.367 17.0469 138.565 17.6493 138.96 18.0642C139.147 18.2643 139.373 18.4229 139.625 18.5295C139.877 18.6361 140.148 18.6883 140.421 18.6827C140.693 18.6885 140.964 18.6363 141.214 18.5297C141.464 18.4231 141.689 18.2644 141.874 18.0642C142.262 17.6518 142.457 17.0494 142.458 16.2568C142.458 15.4643 142.264 14.8594 141.874 14.4421C141.691 14.2393 141.467 14.0783 141.216 13.9698C140.965 13.8614 140.694 13.8081 140.421 13.8137C140.147 13.8084 139.875 13.8617 139.623 13.97C139.371 14.0784 139.145 14.2394 138.96 14.4421Z" fill="#02040F"/>
<path d="M9.68592 25.7834C8.19931 25.7814 6.77415 25.19 5.72296 24.1388C4.67176 23.0876 4.08034 21.6624 4.07838 20.1758V17.9578H10.8821V13.5613H4.07838V7.80161H-0.319336V20.1721C-0.315409 22.8245 0.739974 25.3671 2.61547 27.2426C4.49097 29.1181 7.03357 30.1734 9.68592 30.1774H14.6873V25.7834H9.68592Z" fill="#02040F"/>
<path d="M23.0962 7.80161V13.5613H16.2925V17.9578H23.0962V20.1758C23.0943 21.6626 22.5027 23.088 21.4512 24.1392C20.3998 25.1904 18.9743 25.7817 17.4875 25.7834H12.4873V30.1811H17.4875C20.1398 30.1771 22.6824 29.1218 24.5579 27.2463C26.4334 25.3708 27.4888 22.8282 27.4927 20.1758V7.80532L23.0962 7.80161Z" fill="#02040F"/>
<path d="M20.9254 7.1571H16.9903C16.9664 6.27075 16.5975 5.42873 15.9622 4.81026C15.3268 4.19179 14.4751 3.84573 13.5884 3.84573C12.7018 3.84573 11.8501 4.19179 11.2147 4.81026C10.5794 5.42873 10.2105 6.27075 10.1866 7.1571H6.24902C6.24902 6.19344 6.43883 5.23921 6.80761 4.34891C7.17639 3.4586 7.71691 2.64964 8.39833 1.96823C9.07974 1.28682 9.88869 0.746288 10.779 0.37751C11.6693 0.00873233 12.6235 -0.181076 13.5872 -0.181076C14.5509 -0.181076 15.5051 0.00873233 16.3954 0.37751C17.2857 0.746288 18.0947 1.28682 18.7761 1.96823C19.4575 2.64964 19.998 3.4586 20.3668 4.34891C20.7356 5.23921 20.9254 6.19344 20.9254 7.1571Z" fill="#FFD491"/>
</g>
<defs>
<clipPath id="clip0_1405_9140">
<rect width="146" height="30" fill="white"/>
</clipPath>
</defs>
</svg>
