<svg width="77" height="87" viewBox="0 0 77 87" fill="none" xmlns="http://www.w3.org/2000/svg">
<path d="M19.0376 82.6446L16.8613 30.8265C26.5875 59.8666 55.6683 68.3453 68.232 68.4864L19.0376 82.6446Z" fill="#29237C"/>
<circle cx="33.7262" cy="30.0965" r="1.83871" transform="rotate(0.643412 33.7262 30.0965)" fill="#29237C"/>
<circle cx="43.5323" cy="30.2068" r="1.22581" transform="rotate(0.643412 43.5323 30.2068)" fill="#29237C"/>
<path fill-rule="evenodd" clip-rule="evenodd" d="M76.4266 48.3516C76.3593 54.3498 74.9057 60.0078 72.3739 65.0246L57.996 24.8529L16.0148 24.3814L15.4108 78.163C6.18959 71.1321 0.291208 59.9847 0.431433 47.4982C0.609379 31.6528 10.4609 18.1816 24.31 12.6345C24.4163 12.0733 24.5716 11.3239 24.7962 10.2584C25.3017 7.85935 26.1559 5.59277 27.5554 3.93243C28.9895 2.23106 30.9898 1.18262 33.6262 1.29126C34.1287 1.31196 34.6049 1.36456 35.0556 1.44709C36.1443 0.743571 37.4462 0.364764 38.9769 0.430975C41.5061 0.540374 43.3232 1.57248 44.5417 3.22083C45.726 4.82307 46.289 6.93064 46.5269 9.12709C46.5843 9.65605 46.6229 10.2231 46.646 10.8161C46.0326 10.6809 45.4135 10.5605 44.7892 10.4553C44.7675 10.0619 44.7378 9.68376 44.6989 9.32516C44.4764 7.2709 43.9681 5.53819 43.063 4.3138C42.1921 3.13552 40.9017 2.35466 38.8975 2.26797C38.4334 2.24789 38.0008 2.28107 37.597 2.3633C38.3731 2.81501 39.0289 3.39649 39.5731 4.08541C40.8396 5.68856 41.4426 7.79659 41.6985 9.99324C41.7013 10.0172 41.7041 10.0411 41.7068 10.0648C42.747 10.1537 43.775 10.2845 44.7892 10.4553C44.9742 13.813 44.5723 18.2841 44.2429 21.2235L44.2429 21.2242C44.1668 21.9028 44.0941 22.5521 44.0325 23.1612L45.8619 23.3462C45.9194 22.777 45.9892 22.157 46.0633 21.4988C46.3787 18.6979 46.7821 14.3077 46.646 10.8161C63.8499 14.6072 76.6323 30.0393 76.4266 48.3516ZM39.7158 9.9465C39.4625 7.99851 38.9237 6.35366 37.9943 5.17725C37.3769 4.3957 36.5627 3.78866 35.4602 3.44251C35.2024 3.67098 34.9615 3.92959 34.7357 4.21563C33.6825 5.55013 32.9579 7.4922 32.5087 9.76141C32.4669 9.97282 32.4276 10.1863 32.3907 10.4015C31.7457 10.5045 31.106 10.6238 30.472 10.7589C30.5396 10.3013 30.617 9.84902 30.705 9.40436C31.1756 7.02698 31.9666 4.77937 33.2565 3.1223C31.4668 3.12298 30.1333 3.8446 29.0982 5.07269C27.974 6.4064 27.2015 8.34793 26.7233 10.6168C26.6239 11.0887 26.5424 11.4932 26.4758 11.843C27.7783 11.4115 29.1119 11.0488 30.472 10.7589C29.8092 15.2479 30.0935 20.2418 30.5873 23.4673C30.7886 23.4696 31.0215 23.4149 31.2833 23.3534C31.6131 23.2759 31.9887 23.1877 32.4048 23.1891C31.905 19.9241 31.6376 14.7977 32.3907 10.4015C34.4939 10.0656 36.654 9.90257 38.8558 9.9273C39.1432 9.93053 39.4299 9.93694 39.7158 9.9465ZM24.4916 83.2877L69.2369 70.176C62.2474 79.8359 50.8317 86.0666 38.0023 85.9225C33.2332 85.869 28.6792 84.9391 24.4916 83.2877Z" fill="#29237C"/>
<path opacity="0.2" d="M15.4126 78.0069C10.7824 75.5031 7.0264 69.7401 5.72721 67.1716L16.0148 24.3812L15.4126 78.0069Z" fill="#29237C"/>
</svg>
