<svg width="1680" height="353" viewBox="0 0 1680 353" fill="none" xmlns="http://www.w3.org/2000/svg">
<path d="M0 50C0 22.3858 22.3858 0 50 0C77.6142 0 100 22.3858 100 50C100 77.6142 77.6142 100 50 100C22.3858 100 0 77.6142 0 50Z" fill="black"/>
<path d="M129 50C129 22.3858 151.386 0 179 0H329C356.614 0 379 22.3858 379 50C379 77.6142 356.614 100 329 100H179C151.386 100 129 77.6142 129 50Z" fill="black"/>
<path d="M129 50C129 22.3858 151.386 0 179 0C206.614 0 229 22.3858 229 50V300C229 327.614 206.614 350 179 350C151.386 350 129 327.614 129 300V50Z" fill="black"/>
<path d="M381.2 195.4C388 194.8 393.4 196.4 397.4 200.2C401.4 203.8 403.4 209.2 403.4 216.4C403.4 224.4 401.5 230.2 397.7 233.8C394.1 237.4 387.5 239.7 377.9 240.7L368.9 241.6C358.9 242.8 351.7 246 347.3 251.2C343.1 256.2 341 263.1 341 271.9V323.2C341 331.4 338.4 337.6 333.2 341.8C328.2 345.8 321.9 347.8 314.3 347.8C306.7 347.8 300.3 345.8 295.1 341.8C290.1 337.6 287.6 331.4 287.6 323.2V219.4C287.6 211.8 290.1 205.9 295.1 201.7C300.3 197.5 306.5 195.4 313.7 195.4C321.1 195.4 327 197.4 331.4 201.4C336 205.4 338.3 211 338.3 218.2V223.9C341.5 215.1 346.7 208.3 353.9 203.5C361.3 198.7 369 196.1 377 195.7L381.2 195.4Z" fill="black"/>
<path d="M532.6 298.6C537.2 298.6 540.9 300.4 543.7 304C546.7 307.6 548.2 312.3 548.2 318.1C548.2 326.1 544.3 332.2 536.5 336.4C529.7 339.8 521.6 342.7 512.2 345.1C503 347.3 494.5 348.4 486.7 348.4C470.3 348.4 456 345.3 443.8 339.1C431.6 332.9 422.2 324 415.6 312.4C409 300.8 405.7 287.2 405.7 271.6C405.7 256.8 408.8 243.6 415 232C421.4 220.2 430.2 211.1 441.4 204.7C452.8 198.1 465.6 194.8 479.8 194.8C493.6 194.8 505.7 197.8 516.1 203.8C526.5 209.8 534.5 218.3 540.1 229.3C545.9 240.3 548.8 253.2 548.8 268C548.8 272.6 547.7 276.2 545.5 278.8C543.5 281.2 540.5 282.4 536.5 282.4H457.3C458.7 292 461.8 298.9 466.6 303.1C471.4 307.3 478.5 309.4 487.9 309.4C492.9 309.4 497.5 308.9 501.7 307.9C505.9 306.7 510.6 305.1 515.8 303.1C518.8 301.9 521.7 300.9 524.5 300.1C527.5 299.1 530.2 298.6 532.6 298.6ZM481.3 230.8C474.3 230.8 468.7 233.1 464.5 237.7C460.3 242.1 457.8 248.6 457 257.2H504.1C502.9 239.6 495.3 230.8 481.3 230.8Z" fill="black"/>
<path d="M761 198.8C777.2 198.8 789.7 203.7 798.5 213.5C807.3 223.1 811.7 239.4 811.7 262.4V327.2C811.7 335.4 809.1 341.6 803.9 345.8C798.9 349.8 792.6 351.8 785 351.8C777.4 351.8 771 349.8 765.8 345.8C760.8 341.6 758.3 335.4 758.3 327.2V261.2C758.3 253.2 756.9 247.6 754.1 244.4C751.3 241.2 747.2 239.6 741.8 239.6C734.8 239.6 729.2 242.1 725 247.1C720.8 252.1 718.7 259 718.7 267.8V327.2C718.7 335.4 716.2 341.6 711.2 345.8C706.2 349.8 699.8 351.8 692 351.8C684.4 351.8 678 349.8 672.8 345.8C667.8 341.6 665.3 335.4 665.3 327.2V261.2C665.3 253.2 663.9 247.6 661.1 244.4C658.3 241.2 654.2 239.6 648.8 239.6C641.8 239.6 636.2 242.1 632 247.1C628 252.1 626 259 626 267.8V327.2C626 335.4 623.4 341.6 618.2 345.8C613.2 349.8 606.9 351.8 599.3 351.8C591.7 351.8 585.3 349.8 580.1 345.8C575.1 341.6 572.6 335.4 572.6 327.2V223.4C572.6 215.6 575.2 209.7 580.4 205.7C585.8 201.5 592.2 199.4 599.6 199.4C606.6 199.4 612.4 201.3 617 205.1C621.8 208.7 624.3 214 624.5 221C634.3 206.2 649.3 198.8 669.5 198.8C690.9 198.8 705.2 207.5 712.4 224.9C717.4 216.9 724.1 210.6 732.5 206C740.9 201.2 750.4 198.8 761 198.8Z" fill="black"/>
<path d="M961.6 302.6C966.2 302.6 969.9 304.4 972.7 308C975.7 311.6 977.2 316.3 977.2 322.1C977.2 330.1 973.3 336.2 965.5 340.4C958.7 343.8 950.6 346.7 941.2 349.1C932 351.3 923.5 352.4 915.7 352.4C899.3 352.4 885 349.3 872.8 343.1C860.6 336.9 851.2 328 844.6 316.4C838 304.8 834.7 291.2 834.7 275.6C834.7 260.8 837.8 247.6 844 236C850.4 224.2 859.2 215.1 870.4 208.7C881.8 202.1 894.6 198.8 908.8 198.8C922.6 198.8 934.7 201.8 945.1 207.8C955.5 213.8 963.5 222.3 969.1 233.3C974.9 244.3 977.8 257.2 977.8 272C977.8 276.6 976.7 280.2 974.5 282.8C972.5 285.2 969.5 286.4 965.5 286.4H886.3C887.7 296 890.8 302.9 895.6 307.1C900.4 311.3 907.5 313.4 916.9 313.4C921.9 313.4 926.5 312.9 930.7 311.9C934.9 310.7 939.6 309.1 944.8 307.1C947.8 305.9 950.7 304.9 953.5 304.1C956.5 303.1 959.2 302.6 961.6 302.6ZM910.3 234.8C903.3 234.8 897.7 237.1 893.5 241.7C889.3 246.1 886.8 252.6 886 261.2H933.1C931.9 243.6 924.3 234.8 910.3 234.8Z" fill="black"/>
<path d="M1100.9 198.8C1118.5 198.8 1131.6 204.1 1140.2 214.7C1148.8 225.1 1153.1 241 1153.1 262.4V327.2C1153.1 334.8 1150.7 340.8 1145.9 345.2C1141.1 349.6 1134.6 351.8 1126.4 351.8C1118.2 351.8 1111.7 349.6 1106.9 345.2C1102.1 340.8 1099.7 334.8 1099.7 327.2V264.8C1099.7 256 1098.1 249.6 1094.9 245.6C1091.9 241.6 1087.3 239.6 1081.1 239.6C1073.1 239.6 1066.7 242.2 1061.9 247.4C1057.3 252.4 1055 259.2 1055 267.8V327.2C1055 334.8 1052.6 340.8 1047.8 345.2C1043 349.6 1036.5 351.8 1028.3 351.8C1020.1 351.8 1013.6 349.6 1008.8 345.2C1004 340.8 1001.6 334.8 1001.6 327.2V223.4C1001.6 216.4 1004.1 210.7 1009.1 206.3C1014.1 201.7 1020.6 199.4 1028.6 199.4C1036.2 199.4 1042.2 201.5 1046.6 205.7C1051.2 209.9 1053.5 215.4 1053.5 222.2C1058.7 214.6 1065.4 208.8 1073.6 204.8C1081.8 200.8 1090.9 198.8 1100.9 198.8Z" fill="black"/>
<path d="M1311.6 133C1319.6 133 1326.1 135.3 1331.1 139.9C1336.3 144.3 1338.9 150 1338.9 157V323.2C1338.9 330.8 1336.5 336.8 1331.7 341.2C1326.9 345.6 1320.5 347.8 1312.5 347.8C1305.1 347.8 1299 345.9 1294.2 342.1C1289.6 338.1 1287 332.7 1286.4 325.9C1282.2 332.9 1276 338.4 1267.8 342.4C1259.8 346.4 1250.9 348.4 1241.1 348.4C1228.5 348.4 1217.2 345.2 1207.2 338.8C1197.4 332.2 1189.7 323 1184.1 311.2C1178.5 299.4 1175.7 285.9 1175.7 270.7C1175.7 255.5 1178.4 242.2 1183.8 230.8C1189.4 219.2 1197.1 210.3 1206.9 204.1C1216.9 197.9 1228.3 194.8 1241.1 194.8C1250.5 194.8 1259.1 196.7 1266.9 200.5C1274.9 204.3 1281.1 209.4 1285.5 215.8V156.1C1285.5 149.1 1287.8 143.5 1292.4 139.3C1297.2 135.1 1303.6 133 1311.6 133ZM1257.3 308.5C1266.7 308.5 1273.9 305.3 1278.9 298.9C1283.9 292.5 1286.4 283.3 1286.4 271.3C1286.4 259.5 1283.9 250.5 1278.9 244.3C1273.9 237.9 1266.7 234.7 1257.3 234.7C1248.1 234.7 1241 237.8 1236 244C1231 250.2 1228.5 259.1 1228.5 270.7C1228.5 282.7 1231 292 1236 298.6C1241.2 305.2 1248.3 308.5 1257.3 308.5Z" fill="black"/>
<path d="M1444 348.4C1427.8 348.4 1413.5 345.3 1401.1 339.1C1388.9 332.7 1379.4 323.7 1372.6 312.1C1366 300.5 1362.7 286.9 1362.7 271.3C1362.7 255.7 1366 242.2 1372.6 230.8C1379.4 219.2 1388.9 210.3 1401.1 204.1C1413.3 197.9 1427.6 194.8 1444 194.8C1460.4 194.8 1474.7 197.9 1486.9 204.1C1499.1 210.3 1508.5 219.2 1515.1 230.8C1521.9 242.2 1525.3 255.7 1525.3 271.3C1525.3 286.9 1521.9 300.5 1515.1 312.1C1508.5 323.7 1499.1 332.7 1486.9 339.1C1474.7 345.3 1460.4 348.4 1444 348.4ZM1444 308.5C1463 308.5 1472.5 296.1 1472.5 271.3C1472.5 246.5 1463 234.1 1444 234.1C1425 234.1 1415.5 246.5 1415.5 271.3C1415.5 296.1 1425 308.5 1444 308.5Z" fill="black"/>
<path d="M1619.7 348.4C1595.7 348.4 1576.7 341.6 1562.7 328C1548.7 314.4 1541.7 295.9 1541.7 272.5C1541.7 257.1 1545.1 243.5 1551.9 231.7C1558.7 219.9 1568.2 210.8 1580.4 204.4C1592.8 198 1606.9 194.8 1622.7 194.8C1631.1 194.8 1639.5 195.9 1647.9 198.1C1656.3 200.3 1663.7 203.4 1670.1 207.4C1676.3 211.2 1679.4 217 1679.4 224.8C1679.4 231 1677.9 236.1 1674.9 240.1C1672.1 243.9 1668.4 245.8 1663.8 245.8C1660.8 245.8 1657.9 245.4 1655.1 244.6C1652.3 243.6 1649.2 242.2 1645.8 240.4C1641.8 238.6 1638.4 237.3 1635.6 236.5C1632.8 235.5 1629.7 235 1626.3 235C1606.5 235 1596.6 247.1 1596.6 271.3C1596.6 283.3 1599.1 292.5 1604.1 298.9C1609.3 305.1 1616.7 308.2 1626.3 308.2C1629.7 308.2 1632.8 307.8 1635.6 307C1638.6 306 1641.9 304.6 1645.5 302.8C1649.5 301 1652.7 299.7 1655.1 298.9C1657.7 297.9 1660.5 297.4 1663.5 297.4C1668.1 297.4 1671.8 299.4 1674.6 303.4C1677.6 307.2 1679.1 312.2 1679.1 318.4C1679.1 322.2 1678.3 325.7 1676.7 328.9C1675.1 331.9 1672.9 334.2 1670.1 335.8C1656.3 344.2 1639.5 348.4 1619.7 348.4Z" fill="black"/>
</svg>
